<?xml version="1.0" encoding="UTF-8" standalone="no"?>
<svg
   version="1.1"
   width="176.32816"
   height="199.08748"
   viewBox="0 0 176.32816 199.08748"
   xml:space="preserve"
   id="svg18"
   sodipodi:docname="avatar_circular.svg"
   inkscape:version="1.2.1 (9c6d41e410, 2022-07-14)"
   xmlns:inkscape="http://www.inkscape.org/namespaces/inkscape"
   xmlns:sodipodi="http://sodipodi.sourceforge.net/DTD/sodipodi-0.dtd"
   xmlns="http://www.w3.org/2000/svg"
   xmlns:svg="http://www.w3.org/2000/svg"><sodipodi:namedview
   id="namedview20"
   pagecolor="#ffffff"
   bordercolor="#000000"
   borderopacity="0.25"
   inkscape:showpageshadow="2"
   inkscape:pageopacity="0.0"
   inkscape:pagecheckerboard="0"
   inkscape:deskcolor="#d1d1d1"
   showgrid="false"
   inkscape:zoom="1.3350176"
   inkscape:cx="266.66315"
   inkscape:cy="247.93681"
   inkscape:window-width="1366"
   inkscape:window-height="705"
   inkscape:window-x="1891"
   inkscape:window-y="1358"
   inkscape:window-maximized="1"
   inkscape:current-layer="svg18"
   inkscape:lockguides="false" />
<desc
   id="desc2">Created with Fabric.js 4.6.0</desc>
<defs
   id="defs4"><mask
     id="mask-10-2"
     fill="#ffffff"><path
       d="M 31.60606,13.61527 C 32.558141,22.157822 39.803389,28.8 48.6,28.8 57.423785,28.8 64.686607,22.116722 65.602583,13.536049 65.676302,12.845471 64.905069,11.7 63.93849,11.7 c -13.404612,0 -23.674361,0 -30.560348,0 -0.972187,0 -1.867337,1.060599 -1.772082,1.91527 z"
       id="use2065-2" /></mask></defs>
<g
   inkscape:groupmode="layer"
   id="layer2"
   inkscape:label="fondo"
   transform="translate(2.4541318)"><ellipse
     style="display:inline;fill:#00c6ff;fill-opacity:1;stroke:#b15c00;stroke-width:1.28128;stroke-linecap:square;stroke-opacity:0;paint-order:markers stroke fill"
     id="path876"
     cx="85.709946"
     cy="108.80476"
     rx="87.523438"
     ry="89.642075"
     inkscape:export-filename="avatar_cerrando_ojo.png"
     inkscape:export-xdpi="96"
     inkscape:export-ydpi="96" /></g>

<g
   transform="translate(89.454132,137.21067)"
   id="T2Hv4v0HK8m7MGLbOs50R"
   style="display:inline;opacity:1;fill:#1a1a1a;fill-opacity:1"
   inkscape:export-filename="avatar_con_ojos.svg"
   inkscape:export-xdpi="96"
   inkscape:export-ydpi="96">
<path
   style="display:inline;opacity:1;mix-blend-mode:normal;fill:#1a1a1a;fill-opacity:1;fill-rule:nonzero;stroke:#000000;stroke-width:1;stroke-linecap:butt;stroke-linejoin:miter;stroke-miterlimit:4;stroke-dasharray:none;stroke-dashoffset:0"
   vector-effect="non-scaling-stroke"
   d="m -81.99758,-11.67928 2.5571,-8.62101 v 0 c 0.95304,-3.21307 3.23596,-5.86445 6.27186,-7.28412 l 35.6892,-16.68919 v 0 c 3.35306,-1.56798 6.25564,-3.95766 8.4383,-6.94723 l 5.85321,-8.01707 c 0,0 -5.90164,11.88965 1.31148,30.93483 7.21311,19.04518 27.54098,45.2459 27.54098,45.2459 0,0 17.37705,-32.21311 22.62295,-51.63934 5.2459,-19.42623 -1.63934,-26.06557 -1.63934,-26.06557 l 4.56202,5.44499 v 0 c 3.68204,4.39469 8.35418,7.85312 13.63261,10.09117 l 27.18539,11.5266 v 0 c 3.71262,1.57415 6.375218,4.644123 8.41246,8.12423 l 4.801644,8.20238 C 79.105693,33.630322 34.087358,61.224746 4.0212823,61.27573 -65.741546,60.718083 -77.685915,13.548881 -84.078886,2.4191067 c -1.417219,-3.8012745 0.49463,-9.2757597 2.081306,-14.0983867 z"
   stroke-linecap="round"
   id="path6"
   sodipodi:nodetypes="ccsccsscscsccsscsscccc" />
</g><path
   style="display:inline;opacity:1;fill:#000000;stroke-width:1.33417"
   d="m 66.229722,77.291091 c 0,0 -10.40841,6.51637 -12.7259,15.16539 -3.52654,13.161209 -14.81647,37.763069 -14.81647,37.763069 19.91767,-5.30796 34.95763,7.18807 34.95763,7.18807 6.79008,5.66588 25.69504,39.88307 21.18644,16.41949 -4.5086,-23.46358 -37.14074,-34.65484 -28.6017,-76.536019 z"
   id="path959"
   sodipodi:nodetypes="sssczs" />
<g
   transform="translate(87.664132,62.060671)"
   id="3qh3wFh_YyiLfIJ-B5yiG"
   style="display:inline">
<path
   style="display:inline;opacity:1;fill:#ffdbb4;fill-opacity:1;fill-rule:nonzero;stroke:#000000;stroke-width:1;stroke-linecap:butt;stroke-linejoin:miter;stroke-miterlimit:4;stroke-dasharray:none;stroke-dashoffset:0;stroke-opacity:0"
   vector-effect="non-scaling-stroke"
   d="m -21.90043,17.77119 c 0,0 4.98879,32.378276 26.9734503,49.589456 C 24.717682,50.356202 26.42187,15.05627 26.42187,15.05627 L 26.13339,4.0295 26.92055,-1.72418 v 0 c 0.10358,-0.7571 0.71837,-1.3411 1.47978,-1.40569 l 1.30581,-0.11076 v 0 c 0.98168,-0.08327 1.7694,-0.84549 1.88491,-1.8239 l 1.76378,-14.9393 v 0 c 0.05317,-0.45034 0.0051,-0.90686 -0.14081,-1.33623 l -0.58458,-1.72065 v 0 c -0.10875,-0.32009 -0.35061,-0.57752 -0.66331,-0.70599 -0.3127,-0.12847 -0.66568,-0.11544 -0.96805,0.03575 l -1.36981,0.68491 v 0 c -0.87544,0.43772 -1.41402,1.34694 -1.37725,2.32501 l 0.26453,7.03538 v 0 c 0.0036,0.09447 -0.06138,0.17779 -0.15385,0.19743 -0.11222,0.02383 -0.09797,0.02081 -0.34006,0.07223 -0.22889,0.04861 -1.01837,0.07973 -1.52109,0.09326 v 0 c -0.46967,0.01264 -0.86274,-0.35361 -0.88327,-0.823 -0.18196,-4.16103 -0.55141,-12.60918 -0.55141,-12.60918 -0.03575,-0.81745 -0.13817,-1.50528 -0.34216,-2.29768 -3.12833,-15.403 -4.24877,-16.21552 -9.32598,-22.41163 v 0 c -0.63668,-0.77699 -1.67665,-1.09731 -2.64016,-0.8132 L 1.5203,-48.96387 v 0 c -0.77758,0.22244 -1.59045,0.29454 -2.39504,0.21244 -6.61023,-0.67454 -12.56017,-2.4555 -20.11497,-0.89821 -3.45491,1.96672 -3.82249,3.07789 -4.79635,5.1994 v 0 c -0.08048,0.17532 -0.12914,0.36356 -0.1437,0.55593 l -0.74947,9.89933 c 0,0 -0.64453,4.74069 -0.36603,9.95703 0.25903,4.85156 0.76868,6.81994 1.32903,10.15185 v 0 c 0.03312,0.19691 -0.01668,0.39874 -0.13759,0.55765 -0.1209,0.15891 -0.30215,0.26073 -0.50075,0.28133 l -1.39488,0.14578 v 0 c -0.36451,0.03809 -0.69932,-0.20413 -0.77718,-0.56226 l -1.46768,-6.75112 v 0 c -0.05922,-0.27239 -0.30796,-0.46109 -0.58623,-0.44472 l -1.29108,0.07595 v 0 c -0.75638,0.04449 -1.36246,0.64302 -1.41645,1.39878 l -0.08779,1.22908 2.03324,11.18283 v 0 c 0.09196,0.50579 0.48512,0.90318 0.98989,1.00056 l 2.29644,0.44302 v 0 c 0.46192,0.08911 0.8323,0.43436 0.95358,0.8889 l 3.92721,14.71785 z"
   stroke-linecap="round"
   id="path15"
   sodipodi:nodetypes="cccccsscsccsccssscsscssssssccssscsscssccssssccsccsscssccsscsccc" />
</g><path
   style="display:inline;fill:#ffbe77;fill-opacity:0.635135;fill-rule:nonzero;stroke:#b15c00;stroke-width:1;stroke-linecap:butt;stroke-linejoin:miter;stroke-miterlimit:4;stroke-dasharray:none;stroke-dashoffset:0;stroke-opacity:0"
   vector-effect="non-scaling-stroke"
   d="m 113.79098,66.196531 -49.496108,5.87351 c 20.63183,32.299199 43.663878,27.5416 49.496108,-5.87351 z"
   stroke-linecap="round"
   id="path15-5-7"
   sodipodi:nodetypes="ccc" />
<path
   style="display:inline;fill:#ffdbb4;fill-opacity:1;fill-rule:nonzero;stroke:#ffa039;stroke-width:1;stroke-linecap:butt;stroke-linejoin:miter;stroke-miterlimit:4;stroke-dasharray:none;stroke-dashoffset:0;stroke-opacity:0.698198"
   vector-effect="non-scaling-stroke"
   d="m 113.53328,65.830411 0.78716,-5.75368 v 0 c 0.10358,-0.7571 0.71837,-1.3411 1.47978,-1.40569 l 1.30581,-0.11076 v 0 c 0.98168,-0.0833 1.7694,-0.84549 1.88491,-1.8239 l 1.76378,-14.9393 v 0 c 0.0532,-0.45034 0.005,-0.90686 -0.14081,-1.33623 l -0.58458,-1.72065 v 0 c -0.10875,-0.32009 -0.35061,-0.57752 -0.66331,-0.70599 -0.3127,-0.12847 -0.66568,-0.11544 -0.96805,0.0358 l -1.36981,0.68491 v 0 c -0.87544,0.43772 -1.41402,1.34694 -1.37725,2.32501 l 0.26453,7.03538 v 0 c 0.004,0.0945 -0.0614,0.17779 -0.15385,0.19743 -0.11222,0.0238 -0.098,0.0208 -0.34006,0.0722 -0.22889,0.0486 -1.01837,0.0797 -1.52109,0.0933 v 0 c -0.46967,0.0126 0.0736,-1.00903 0.0531,-1.47842 -0.18196,-4.16103 -1.48773,-11.95376 -1.48773,-11.95376 -0.0357,-0.81745 -0.13817,-1.50528 -0.34216,-2.29768 -3.12833,-15.403 -4.24877,-16.21552 -9.32598,-22.41163 v 0 C 102.16099,9.5597611 101.12102,9.2394411 100.15751,9.5235511 L 88.920242,12.837101 v 0 c -0.77758,0.22244 -1.59045,0.29454 -2.39504,0.21244 -6.61023,-0.67454 -12.56017,-2.4555 -20.11497,-0.89821 -3.45491,1.96672 -3.82249,3.07789 -4.79635,5.1994 v 0 c -0.0805,0.17532 -0.12914,0.36356 -0.1437,0.55593 l -0.74947,9.89933 c 0,0 -0.64453,4.74069 -0.36603,9.95703 0.25903,4.85156 0.76868,6.81994 1.32903,10.15185 v 0 c 0.0331,0.19691 -0.33053,0.41499 -0.48871,0.62787 -0.0514,0.0692 0.049,0.19051 -0.14963,0.21111 l -1.39488,0.14578 v 0 l 0.15913,-0.18773 -1.86561,-7.05543 c 0,0 -1.39714,-0.51959 -2.41569,-0.43904 v 0 c -0.75638,0.0445 -1.36246,0.64302 -1.41645,1.39878 l -0.0878,1.22908 2.03324,11.18283 v 0 c 0.092,0.50579 0.48512,0.90318 0.98989,1.00056 l 2.29644,0.44302 v 0 c 0.46192,0.0891 0.8323,0.43436 0.95358,0.8889 l 3.92721,14.71785 c 19.88278,20.7825 40.480398,26.13712 49.308848,-6.24804 z"
   stroke-linecap="round"
   id="path15-5"
   sodipodi:nodetypes="ccsscsccsccssscsscssssssccssscsscssccsssaccccccssccsscsccc" /><path
   style="display:inline;opacity:1;fill:#000000;fill-opacity:1;stroke-width:1.33417"
   d="m 93.772102,158.0644 v 40.7839 l 4.23728,-1.58899 c 0,0 -3.77813,-29.80333 0,-43.96186 3.097908,-11.60942 8.330868,-22.39473 15.840428,-32.84363 7.50955,-10.44891 33.41805,-7.94027 33.41805,-7.94027 C 130.16952,85.052351 116.28269,77.026261 116.28269,77.026261 111.79009,116.57067 93.772102,158.0644 93.772102,158.0644 Z"
   id="path1128"
   sodipodi:nodetypes="cccszssc" /><g
   transform="translate(91.654132,115.05067)"
   id="rtLBh_iW-lXrIRPdd9uFI"
   style="display:inline;fill:#ffb3ff;fill-opacity:1">
<path
   style="display:inline;opacity:1;fill:#ffb5b5;fill-opacity:1;fill-rule:nonzero;stroke:#e2e3ff;stroke-width:1;stroke-linecap:butt;stroke-linejoin:miter;stroke-miterlimit:4;stroke-dasharray:none;stroke-dashoffset:0;stroke-opacity:0"
   vector-effect="non-scaling-stroke"
   d="M 34.537456,-11.444889 C 19.140991,-1.6386977 12.162332,14.355663 4.00882,41.165765 -9.7814242,19.620058 -13.077086,3.1288517 -39.091668,-4.6234631 c 0.38149,-13.8395899 12.731934,-3.9474676 12.533858,-30.4032069 0.171378,0.04414 0.15324,-0.31728 0.32877,-0.3398 0.17553,-0.02252 0.34325,0.07954 0.40391,0.24579 4.91531,13.47174 5.775299,17.92678 25.59416961,34.14089947 C 12.095209,-10.42208 16.72173,-25.62159 23.97463,-38.52009 v 0 l 0.42476,-0.20632 c 0,0 0.374681,0.171538 0.34208,0.32553 -2.724441,12.868918 7.896773,13.24339 9.795986,26.955991 z"
   stroke-linecap="round"
   id="path9"
   sodipodi:nodetypes="ccccsccsccsc" />
<path
   style="display:inline;fill:#ffaaaa;fill-opacity:1;fill-rule:nonzero;stroke:#e2e3ff;stroke-width:1;stroke-linecap:butt;stroke-linejoin:miter;stroke-miterlimit:4;stroke-dasharray:none;stroke-dashoffset:0;stroke-opacity:0"
   vector-effect="non-scaling-stroke"
   d="M 34.918762,-12.223311 C 19.522297,-2.4171198 12.543638,13.577241 4.3901243,40.387343 -12.095356,17.775294 0.15034435,-1.7582028 0.15034435,-1.7582028 12.476515,-11.200502 23.748129,-39.415951 22.576933,-38.830353 l 0.280895,-0.140448 1.501525,0.215023 c 3.29684,5.049667 8.681199,17.042893 10.559409,26.532467 z"
   stroke-linecap="round"
   id="path9-3"
   sodipodi:nodetypes="cccsccc" /></g><g
   transform="translate(87.324132,24.430671)"
   id="d5N2BHTM5yhy-6Ku9KzG9"
   style="display:inline;fill:#2e2e2e;fill-opacity:1">
<path
   style="display:inline;opacity:1;fill:#2e2e2e;fill-opacity:1;fill-rule:nonzero;stroke:#000000;stroke-width:0;stroke-linecap:butt;stroke-linejoin:miter;stroke-miterlimit:4;stroke-dasharray:none;stroke-dashoffset:0"
   vector-effect="non-scaling-stroke"
   d="m -29.484,16.7559 c 0,0 -3.03079,-7.24459 -1.912,-14.9586 0.6389,-4.40516 1.51649,-6.44386 2.99522,-9.31395 v 0 c 2.21821,-4.30536 5.58158,-7.91503 9.71972,-10.43146 l 5.50534,-3.34784 v 0 c 4.59386,-2.79357 10.06664,-3.76743 15.3422,-2.7301 l 6.82855,1.34269 v 0 c 5.06888,0.99669 9.70368,3.54146 13.26527,7.28338 l 1.18114,1.24094 v 0 c 2.29527,2.41148 4.12311,5.22796 5.3907,8.30639 l 0.66026,1.6035 v 0 c 1.26168,3.06408 1.94268,6.33602 2.00828,9.64904 l 0.14298,7.22031 v 0 c 0.0088,0.44302 -0.21868,0.85728 -0.59717,1.08767 l -1.18609,0.72197 v 0 c -0.71341,0.43425 -1.14406,1.21334 -1.1323,2.04844 l 0.09078,6.44546 v 0 c 0.0048,0.34023 -0.13082,0.66739 -0.3749,0.90446 -0.24408,0.23707 -0.57506,0.36308 -0.915,0.34837 v 0 0 C 26.8521,24.11413 26.31805,23.57419 26.26304,22.89666 25.61409,14.90304 25.271229,8.12804 22.456119,-1.18415 19.172419,-9.70997 19.11196,-10.10544 15.88271,-13.51487 v 0 c -0.86162,-0.9097 -2.16108,-1.2585 -3.36243,-0.90254 l -8.91618,2.64183 v 0 c -1.65577,0.47309 -3.38716,0.62287 -5.09958,0.44113 -6.41614,-0.68092 -9.63711,-2.03049 -19.53899,-0.71442 -1.94457,1.40287 -2.22631,0.69671 -4.08395,4.6916 -3.44315,17.44668 -1.33903,20.56792 -0.07204,30.57925 v 0 c 0.05612,0.44347 -0.23678,0.85602 -0.67396,0.94925 l -1.03926,0.2362 v 0 c -0.24413,0.05548 -0.50031,0.01066 -0.71109,-0.12443 -0.21078,-0.13509 -0.35852,-0.34912 -0.41008,-0.59411 z"
   stroke-linecap="round"
   id="path12"
   sodipodi:nodetypes="csssscsscsscsscsscsscsscssscsccssscssccssccsscc" />
</g><path
   d="m 73.046032,33.185331 c -2.53717,0.29801 -6.52135,2.43936 -6.23339,4.9988 0.009,0.0838 0.13549,0.11191 0.1912,0.043 1.11567,-1.38281 9.5971,-3.30137 12.66638,-2.82079 0.28091,0.0441 0.47157,-0.24347 0.28255,-0.42804 -1.61965,-1.58056 -4.63385,-2.06218 -6.90674,-1.79298"
   id="Eyebrow"
   style="display:inline;fill:#333333;fill-opacity:1;stroke-width:0.488278" /><path
   d="m 99.305552,31.324101 c 2.553838,-0.0628 6.800228,1.49515 6.876138,4.06962 0.002,0.0843 -0.11835,0.1299 -0.18322,0.0695 -1.29956,-1.21163 -9.966808,-1.91472 -12.937618,-1.00602 -0.27188,0.0833 -0.5012,-0.17453 -0.34009,-0.38391 1.38052,-1.79321 4.29666,-2.69516 6.58478,-2.74924"
   id="path2085"
   style="display:inline;fill:#333333;fill-opacity:1;stroke-width:0.488278" /><path
   d="m 69.583942,46.762691 c 0.70663,-2.60473 2.61866,-4.53655 5.0086,-4.73156 2.38151,-0.19431 4.57432,1.39007 5.69748,3.83107 0.33366,0.72512 -0.004,1.3684 -0.43281,0.94712 -1.32656,-1.30465 -3.11931,-2.04075 -5.0286,-1.88496 -1.84958,0.15091 -3.45555,1.10998 -4.55192,2.53567 -0.40087,0.52126 -0.89936,0.0653 -0.69275,-0.69734 z"
   id="Squint"
   style="display:none;stroke-width:0.639785" /><path
   d="m 95.271258,44.422551 c 0.70662,-2.60473 2.61865,-4.53656 5.008602,-4.73156 2.38151,-0.19432 4.57432,1.39006 5.69749,3.83106 0.33364,0.72513 -0.004,1.3684 -0.43282,0.94712 -1.32656,-1.30465 -3.1193,-2.04074 -5.0286,-1.88496 -1.849572,0.15092 -3.455552,1.10999 -4.551932,2.53567 -0.40086,0.52127 -0.89935,0.0654 -0.69274,-0.69733 z"
   id="path2081"
   style="display:inline;stroke-width:0.639785" /><path
   d="m 83.807382,54.315071 c 0.30287,2.20057 2.9306,3.65661 5.86921,3.25216 v 0 c 2.9386,-0.40445 5.07528,-2.51624 4.77241,-4.7168"
   id="Nose"
   style="fill:#de8787;stroke-width:0.527074" /><g
   id="Mouth/Smile"
   transform="matrix(0.61661305,-0.10861629,0.11074968,0.6047351,59.356092,62.512971)"><mask
     id="mask3518"
     fill="#ffffff"><path
       d="M 31.60606,13.61527 C 32.558141,22.157822 39.803389,28.8 48.6,28.8 57.423785,28.8 64.686607,22.116722 65.602583,13.536049 65.676302,12.845471 64.905069,11.7 63.93849,11.7 c -13.404612,0 -23.674361,0 -30.560348,0 -0.972187,0 -1.867337,1.060599 -1.772082,1.91527 z"
       id="use3516" /></mask><path
     d="M 31.60606,13.61527 C 32.558141,22.157822 39.803389,28.8 48.6,28.8 57.423785,28.8 64.686607,22.116722 65.602583,13.536049 65.676302,12.845471 64.905069,11.7 63.93849,11.7 c -13.404612,0 -23.674361,0 -30.560348,0 -0.972187,0 -1.867337,1.060599 -1.772082,1.91527 z"
     id="Mouth"
     style="fill:#000000;fill-opacity:0.7;fill-rule:evenodd" /><path
     d="m 39.6,1.8 h 18.9 c 2.485281,0 4.5,2.0147186 4.5,4.5 v 5.4 c 0,2.485281 -2.014719,4.5 -4.5,4.5 H 39.6 c -2.485281,0 -4.5,-2.014719 -4.5,-4.5 V 6.3 c 0,-2.4852814 2.014719,-4.5 4.5,-4.5 z"
     id="Teeth"
     fill="#ffffff"
     fill-rule="evenodd"
     mask="url(#mask-10-2)" /><g
     id="Tongue"
     stroke-width="1"
     fill-rule="evenodd"
     mask="url(#mask-10-2)"
     fill="#ff4f6d"><g
       transform="translate(34.2,21.6)"
       id="g2074"><circle
         cx="9.8999996"
         cy="9.8999996"
         id="circle2070"
         r="9.8999996" /><circle
         cx="18.9"
         cy="9.8999996"
         r="9.8999996"
         id="circle2072" /></g></g></g><g
   inkscape:groupmode="layer"
   id="layer1"
   inkscape:label="ojos"
   transform="translate(2.4541318)"><path
     d="m 66.84273,46.90316 c 0.375592,-3.630948 2.61866,-4.53655 5.0086,-4.73156 2.38151,-0.19431 5.103981,0.595578 5.69748,3.83107 -0.28768,4.447113 -9.47376,4.755074 -10.70608,0.90049 z"
     id="Squint-9"
     style="display:inline;fill:#de8787;fill-opacity:1;stroke-width:0.639785"
     sodipodi:nodetypes="cscc" /><path
     d="m 93.523163,44.56302 c 0.375582,-3.895779 2.61865,-4.53656 5.0086,-4.73156 2.381507,-0.19432 5.070877,0.69488 5.697487,3.83106 -0.35648,3.731436 -5.108635,3.601113 -5.108635,3.601113 0,0 -5.2836,-0.03285 -5.597452,-2.700613 z"
     id="path2081-2"
     style="display:none;fill:#de8787;fill-opacity:1;stroke-width:0.639785"
     sodipodi:nodetypes="csccc" /><path
     d="m 66.819473,47.444696 c 0.375592,-2.899672 2.61866,-3.622886 5.0086,-3.77862 2.38151,-0.155176 5.103981,0.475628 5.69748,3.05949 -0.28768,3.551461 -9.47376,3.797398 -10.70608,0.71913 z"
     id="Squint-9-5"
     style="display:inline;fill:#ffffff;stroke-width:0.57174"
     sodipodi:nodetypes="cscc" /><path
     d="m 93.499906,45.056644 c 0.375582,-3.186595 2.61865,-3.71073 5.0086,-3.870232 2.381514,-0.158947 5.070884,0.568385 5.697494,3.133658 -0.35648,3.05217 -5.108642,2.945571 -5.108642,2.945571 0,0 -5.2836,-0.02687 -5.597452,-2.208997 z"
     id="path2081-2-3"
     style="display:none;fill:#ffffff;stroke-width:0.578629"
     sodipodi:nodetypes="csccc" /><circle
     style="display:inline;fill:#28170b;fill-opacity:1;stroke:#b15c00;stroke-width:1.54;stroke-opacity:0"
     id="path1357"
     cx="72.190056"
     cy="46.441334"
     r="2.1535296" /><circle
     style="display:none;fill:#28170b;fill-opacity:1;stroke:#b15c00;stroke-width:1.54;stroke-opacity:0"
     id="path1357-4"
     cx="98.875107"
     cy="44.287804"
     r="2.1535296" /></g></svg>
