<svg width="60" height="60" viewBox="0 0 24 24" fill="none" xmlns="http://www.w3.org/2000/svg">
<path d="M11 17H20" stroke="black" stroke-width="2" stroke-linecap="round" stroke-linejoin="round"/>
<path d="M8.76822 15.6402C9.12179 15.2159 9.06446 14.5853 8.64018 14.2318C8.21591 13.8782 7.58534 13.9355 7.23178 14.3598L8.76822 15.6402ZM5.5 18L4.9453 18.8321C5.37052 19.1155 5.94106 19.0328 6.26822 18.6402L5.5 18ZM4.5547 16.1679C4.09517 15.8616 3.4743 15.9858 3.16795 16.4453C2.8616 16.9048 2.98577 17.5257 3.4453 17.8321L4.5547 16.1679ZM7.23178 14.3598L4.73178 17.3598L6.26822 18.6402L8.76822 15.6402L7.23178 14.3598ZM6.0547 17.1679L4.5547 16.1679L3.4453 17.8321L4.9453 18.8321L6.0547 17.1679Z" fill="black"/>
<path d="M11 12H20" stroke="black" stroke-width="2" stroke-linecap="round" stroke-linejoin="round"/>
<path d="M8.76822 10.6401C9.12179 10.2158 9.06446 9.58528 8.64018 9.23172C8.21591 8.87815 7.58534 8.93548 7.23178 9.35975L8.76822 10.6401ZM5.5 12.9999L4.94533 13.832C5.37054 14.1155 5.94106 14.0327 6.26822 13.6401L5.5 12.9999ZM4.55467 11.1679C4.09513 10.8616 3.47427 10.9858 3.16793 11.4453C2.86159 11.9049 2.98579 12.5257 3.44533 12.8321L4.55467 11.1679ZM7.23178 9.35975L4.73178 12.3598L6.26822 13.6401L8.76822 10.6401L7.23178 9.35975ZM6.05467 12.1679L4.55467 11.1679L3.44533 12.8321L4.94533 13.832L6.05467 12.1679Z" fill="black"/>
<path d="M11 7H20" stroke="black" stroke-width="2" stroke-linecap="round" stroke-linejoin="round"/>
<path d="M8.76822 5.64018C9.12179 5.21591 9.06446 4.58534 8.64018 4.23178C8.21591 3.87821 7.58534 3.93554 7.23178 4.35982L8.76822 5.64018ZM5.5 8L4.9453 8.83205C5.37052 9.11553 5.94106 9.03278 6.26822 8.64018L5.5 8ZM4.5547 6.16795C4.09517 5.8616 3.4743 5.98577 3.16795 6.4453C2.8616 6.90483 2.98577 7.5257 3.4453 7.83205L4.5547 6.16795ZM7.23178 4.35982L4.73178 7.35982L6.26822 8.64018L8.76822 5.64018L7.23178 4.35982ZM6.0547 7.16795L4.5547 6.16795L3.4453 7.83205L4.9453 8.83205L6.0547 7.16795Z" fill="black"/>
</svg>
