<svg width="60" height="60" viewBox="0 0 24 24" fill="none" xmlns="http://www.w3.org/2000/svg">
<path d="M2 17V16C1.44772 16 1 16.4477 1 17H2ZM22 17H23C23 16.4477 22.5523 16 22 16V17ZM2 18H22V16H2V18ZM21 17V19H23V17H21ZM21 19H3V21H21V19ZM3 19V17H1V19H3ZM3 19H3H1C1 20.1046 1.89543 21 3 21V19ZM21 19V21C22.1046 21 23 20.1046 23 19H21Z" fill="black"/>
<path d="M19 5H5C4.44772 5 4 5.44772 4 6V16C4 16.5523 4.44772 17 5 17H19C19.5523 17 20 16.5523 20 16V6C20 5.44772 19.5523 5 19 5Z" stroke="black" stroke-width="2" stroke-linecap="round" stroke-linejoin="round"/>
</svg>
