<?xml version="1.0" encoding="UTF-8" standalone="no"?>
<svg
   viewBox="0 0 95.99 95.99"
   version="1.1"
   id="svg12"
   sodipodi:docname="pdf.svg"
   inkscape:version="1.2.1 (9c6d41e410, 2022-07-14)"
   width="110595.84"
   height="212997.12"
   xmlns:inkscape="http://www.inkscape.org/namespaces/inkscape"
   xmlns:sodipodi="http://sodipodi.sourceforge.net/DTD/sodipodi-0.dtd"
   xmlns="http://www.w3.org/2000/svg"
   xmlns:svg="http://www.w3.org/2000/svg">
  <defs
     id="defs16" />
  <path
     d="m -36772.16,-48842.879 h -8 v -48 h 8 c 13.3,0 24,10.7 24,24 0,13.3 -10.7,24 -24,24 z m 104,-48 h 8 c 8.8,0 16,7.2 16,16 v 64 c 0,8.8 -7.2,16 -16,16 h -8 z m 32,-256 v 128 c 0,17.7 14.3,32 32,32 h 128 v 288 c 0,35.3 -28.7,64 -64,64 h -256 c -35.35,0 -64,-28.7 -64,-64 v -384 c 0,-35.35 28.65,-64 64,-64 z m -160,224 c -8.84,0 -16,7.2 -16,16 v 128 c 0,8.8 7.16,16 16,16 8.84,0 16,-7.2 16,-16 v -32 h 8 c 30.9,0 56,-25.1 56,-56 0,-30.9 -25.1,-56 -56,-56 z m 96,144 c 0,8.8 7.2,16 16,16 h 24 c 26.5,0 48,-21.5 48,-48 v -64 c 0,-26.5 -21.5,-48 -48,-48 h -24 c -8.8,0 -16,7.2 -16,16 z m 128,-144 c -8.8,0 -16,7.2 -16,16 v 128 c 0,8.8 7.2,16 16,16 8.8,0 16,-7.2 16,-16 v -48 h 32 c 8.8,0 16,-7.2 16,-16 0,-8.8 -7.2,-16 -16,-16 h -32 v -32 h 32 c 8.8,0 16,-7.2 16,-16 0,-8.8 -7.2,-16 -16,-16 z m -32,-224 128,128 h -128 z"
     id="path10"
     inkscape:label="path10"
     style="fill:#ff0000" />
</svg>
